<?xml version="1.0" encoding="utf-8"?>
<!-- Generator: Adobe Illustrator 24.0.2, SVG Export Plug-In . SVG Version: 6.00 Build 0)  -->
<svg version="1.1" id="Capa_1" xmlns="http://www.w3.org/2000/svg" xmlns:xlink="http://www.w3.org/1999/xlink" x="0px" y="0px"
	 viewBox="0 0 40 40" style="enable-background:new 0 0 40 40;" xml:space="preserve">
<style type="text/css">
	.st0{fill:#FFFFFF;}
	.st1{fill:#EEF2F6;}
	.st2{fill:#0C4EE7;}
	.st3{fill:none;stroke:#B8C3CC;stroke-miterlimit:10;}
	.st4{fill:#8697A3;}
	.st5{opacity:0.5;fill:#F44A5A;}
	.st6{fill:#F44A5A;}
	.st7{fill:none;}
	.st8{fill:#1656E8;}
	.st9{fill:none;stroke:#EEF2F6;stroke-miterlimit:10;}
</style>
<g>
	<g>
		<path class="st4" d="M4.84,15.96c1.05,0,2.07-0.01,3.1,0.01c0.07,0,0.18,0.14,0.21,0.24c0.58,1.82,1.16,3.64,1.73,5.46
			c0.02,0.06,0.04,0.11,0.09,0.25c0.64-2.03,1.25-3.99,1.86-5.95c1.04,0,2.05,0,3.11,0c-0.24,0.63-0.47,1.25-0.71,1.87
			c-0.89,2.34-1.79,4.67-2.67,7.01c-0.08,0.21-0.18,0.3-0.42,0.29c-0.87-0.02-1.75,0-2.62-0.01c-0.1,0-0.26-0.09-0.29-0.18
			C7.11,22,5.99,19.05,4.88,16.1C4.86,16.06,4.86,16.02,4.84,15.96z"/>
		<path class="st4" d="M23.75,17.49c-0.6,0.72-1.18,1.4-1.75,2.09c-0.23-0.22-0.43-0.44-0.66-0.63c-0.56-0.46-1.19-0.72-1.93-0.52
			c-0.94,0.26-1.53,1.25-1.38,2.33c0.21,1.56,1.53,2.27,2.93,1.53c0.36-0.19,0.69-0.46,1.06-0.72c0.26,0.28,0.55,0.58,0.84,0.89
			c0.29,0.31,0.58,0.62,0.88,0.95c-0.7,0.78-1.55,1.29-2.53,1.61c-2.12,0.67-4.47-0.12-5.58-1.89c-1.63-2.62-0.6-6.68,3.4-7.24
			C20.84,15.63,22.39,16.21,23.75,17.49z"/>
	</g>
	<path class="st4" d="M39.76,28.32c0-5.54,0-11.08,0-16.63c0-0.17-0.03-0.35-0.08-0.5c-0.14-0.41-0.43-0.7-0.81-0.82
		c-0.43-0.14-0.92-0.05-1.34,0.25l-9.48,6.76l0-2.5c0-1.06,0-2.12,0-3.18c-0.02-2.65-2.07-4.74-4.67-4.74
		c-3.08,0-6.16-0.01-9.24-0.01s-6.16,0-9.24,0.01c-2.52,0-4.65,2.12-4.65,4.63c-0.01,5.61-0.01,11.23,0,16.84
		c0,1.3,0.49,2.42,1.46,3.34c0.92,0.88,2.04,1.3,3.42,1.3c0,0,0,0,0.01,0l16.28,0c0.75,0.01,1.5,0,2.24-0.02
		c2.31-0.08,4.31-2.1,4.36-4.4c0.03-1.15,0.02-2.3,0.02-3.44l0-2.56L30,24.02c2.53,1.81,5.06,3.61,7.59,5.42
		c0.47,0.34,0.94,0.37,1.44,0.11C39.52,29.3,39.76,28.89,39.76,28.32z M25.34,28.26c0,1.26-0.84,2.1-2.08,2.1
		c-3.35,0-6.69,0-10.04,0c-2.73,0-5.46,0-8.18,0c-1.23,0-2.09-0.85-2.09-2.07c0-5.53,0-11.06,0-16.6c0-1.19,0.87-2.05,2.08-2.05
		h18.23c1.25,0,2.1,0.84,2.1,2.09V28.26z M37.06,25.74L29.02,20l8.04-5.74V25.74z"/>
</g>
</svg>
