<svg width="9" height="6" viewBox="0 0 9 6" fill="none" xmlns="http://www.w3.org/2000/svg">
<path d="M8.12109 1.65891C8.21245 1.56032 8.26091 1.42966 8.25671 1.29577C8.25251 1.16186 8.19596 1.03445 8.09845 0.941811C8.00083 0.849066 7.87016 0.798875 7.7351 0.80324C7.60005 0.807605 7.47295 0.866111 7.38149 0.964804L7.38144 0.964856L4.49719 4.07891L1.66174 0.919981C1.66172 0.919955 1.6617 0.919929 1.66167 0.919903C1.61488 0.867747 1.55773 0.825784 1.49373 0.796837C1.42969 0.76787 1.36029 0.752618 1.28993 0.752138L1.04017 0.750433L1.03965 0.817159C1.0301 0.822523 1.02071 0.828208 1.01149 0.834207L1.03919 0.87676L1.01149 0.834208C0.928664 0.888119 0.863626 0.965021 0.82391 1.05513C0.784206 1.14521 0.771389 1.24487 0.786876 1.342C0.80235 1.43905 0.845487 1.5298 0.91144 1.60302C0.911505 1.60309 0.911571 1.60317 0.911637 1.60324L4.30233 5.38014L4.48548 5.58415L4.67177 5.38301L8.12109 1.65891ZM8.12109 1.65891L7.93773 1.48898L8.12113 1.65886L8.12109 1.65891Z" fill="#6E6F7C" stroke="#6E6F7C" stroke-width="0.5"/>
</svg>
