<svg width="4" height="12" viewBox="0 0 4 12" fill="none" xmlns="http://www.w3.org/2000/svg">
<path d="M2.00002 3.33341C2.73335 3.33341 3.33335 2.73341 3.33335 2.00008C3.33335 1.26675 2.73335 0.666748 2.00002 0.666748C1.26669 0.666748 0.666687 1.26675 0.666687 2.00008C0.666687 2.73341 1.26669 3.33341 2.00002 3.33341ZM2.00002 4.66675C1.26669 4.66675 0.666687 5.26675 0.666687 6.00008C0.666687 6.73341 1.26669 7.33341 2.00002 7.33341C2.73335 7.33341 3.33335 6.73341 3.33335 6.00008C3.33335 5.26675 2.73335 4.66675 2.00002 4.66675ZM2.00002 8.66675C1.26669 8.66675 0.666687 9.26675 0.666687 10.0001C0.666687 10.7334 1.26669 11.3334 2.00002 11.3334C2.73335 11.3334 3.33335 10.7334 3.33335 10.0001C3.33335 9.26675 2.73335 8.66675 2.00002 8.66675Z" fill="#6E6F7C"/>
</svg>
