<svg width="585" height="517" viewBox="0 0 585 517" fill="none" xmlns="http://www.w3.org/2000/svg">
<path d="M147.894 443.927C66.229 362.271 66.229 229.879 147.894 148.223C229.56 66.566 361.965 66.5659 443.63 148.223C525.296 229.879 525.296 362.271 443.63 443.927C361.965 525.584 229.56 525.584 147.894 443.927Z" fill="white"/>
<path d="M466.447 252.773C466.447 209.968 453.577 170.184 431.508 137.051C476.404 175.399 504.881 232.414 504.881 296.08C504.881 411.559 411.255 505.174 295.764 505.174C223.082 505.174 159.071 468.086 121.586 411.816C158.123 443.026 205.525 461.868 257.33 461.868C372.821 461.868 466.447 368.252 466.447 252.773V252.773Z" fill="#BECCFF"/>
<path d="M167.114 378.432C121.631 332.953 121.631 259.219 167.114 213.74C212.597 168.262 286.34 168.262 331.823 213.74C377.306 259.219 377.306 332.953 331.823 378.432C286.34 423.91 212.597 423.91 167.114 378.432Z" fill="#6E85E9"/>
<path d="M163.503 308.256C156.76 265.922 185.615 226.138 227.953 219.395C270.291 212.652 310.08 241.504 316.823 283.838C323.567 326.171 294.712 365.956 252.374 372.698C210.035 379.441 170.247 350.589 163.503 308.256Z" fill="#6079E4"/>
<path d="M185.465 306.454C179.736 281.817 195.066 257.201 219.705 251.473C244.345 245.744 268.963 261.072 274.692 285.709C280.422 310.345 265.092 334.961 240.453 340.69C215.813 346.419 191.195 331.091 185.465 306.454Z" fill="#4358B2"/>
<g opacity="0.5">
<path opacity="0.5" d="M271.487 284.43C251.667 284.43 235.6 268.365 235.6 248.547C235.6 228.729 251.667 212.664 271.487 212.664C291.307 212.664 307.374 228.729 307.374 248.547C307.374 268.365 291.307 284.43 271.487 284.43Z" fill="white"/>
<path opacity="0.5" d="M291.903 321.627C284.847 321.627 279.128 315.908 279.128 308.853C279.128 301.799 284.847 296.08 291.903 296.08C298.958 296.08 304.678 301.799 304.678 308.853C304.678 315.908 298.958 321.627 291.903 321.627Z" fill="white"/>
</g>
<path d="M119.255 144.081C120.448 110.826 142.042 70.7568 158.895 43.8682C165.492 33.343 180.869 33.343 187.453 43.8682C204.306 70.7568 225.9 110.826 227.092 144.081C227.147 145.029 227.174 145.977 227.174 146.939C227.174 176.754 202.992 200.933 173.174 200.933C143.356 200.933 119.174 176.754 119.174 146.939C119.174 145.977 119.201 145.029 119.255 144.081V144.081Z" fill="#BECCFF"/>
<path d="M119.255 144.081C120.448 110.826 142.042 70.7568 158.895 43.8682C162.688 37.8267 169.367 35.2665 175.626 36.1741C159.897 62.5209 142.462 97.7538 141.392 127.541C141.338 128.49 141.31 129.438 141.31 130.399C141.31 160.214 165.493 184.394 195.31 184.394C202.436 184.394 209.25 182.998 215.482 180.492C205.593 192.955 190.325 200.947 173.174 200.947C143.356 200.947 119.174 176.767 119.174 146.953C119.174 145.991 119.201 145.043 119.255 144.094V144.081Z" fill="#A5B2ED"/>
<path d="M186.464 140.505C187.94 153.224 195.568 162.788 203.52 161.867C211.459 160.946 216.715 149.892 215.238 137.172C213.762 124.453 206.135 114.889 198.182 115.811C190.23 116.732 184.987 127.785 186.464 140.505V140.505Z" fill="white"/>
<path d="M195.771 104.405C192.217 104.405 189.336 101.524 189.336 97.9706C189.336 94.417 192.217 91.5363 195.771 91.5363C199.325 91.5363 202.206 94.417 202.206 97.9706C202.206 101.524 199.325 104.405 195.771 104.405Z" fill="white"/>
<path d="M232.267 75.9855C232.864 59.3511 243.661 39.3303 252.087 25.8792C255.379 20.6234 263.074 20.6234 266.366 25.8792C274.793 39.3303 285.59 59.3511 286.186 75.9855C286.213 76.4596 286.227 76.9337 286.227 77.4079C286.227 92.3219 274.142 104.405 259.227 104.405C244.311 104.405 232.227 92.3219 232.227 77.4079C232.227 76.9337 232.227 76.4596 232.267 75.9855V75.9855Z" fill="#BECCFF"/>
<path d="M232.267 75.9855C232.864 59.3511 243.661 39.3303 252.087 25.8792C253.984 22.8584 257.317 21.5851 260.446 22.0321C252.575 35.2123 243.864 52.822 243.336 67.709C243.309 68.1831 243.295 68.6572 243.295 69.1313C243.295 84.0453 255.379 96.1283 270.295 96.1283C273.858 96.1283 277.258 95.4239 280.374 94.1777C275.429 100.409 267.802 104.405 259.227 104.405C244.311 104.405 232.227 92.3219 232.227 77.4078C232.227 76.9337 232.227 76.4596 232.267 75.9855V75.9855Z" fill="#A5B2ED"/>
<path d="M265.878 74.211C266.61 80.5641 270.43 85.3458 274.4 84.8852C278.369 84.4246 280.997 78.8979 280.252 72.5449C279.521 66.1918 275.7 61.4101 271.731 61.8707C267.762 62.3312 265.133 67.858 265.878 74.211Z" fill="white"/>
<path d="M270.525 56.1678C268.744 56.1678 267.301 54.7244 267.301 52.9439C267.301 51.1634 268.744 49.72 270.525 49.72C272.306 49.72 273.749 51.1634 273.749 52.9439C273.749 54.7244 272.306 56.1678 270.525 56.1678Z" fill="white"/>
<path d="M67.3554 343.03H127.546L138.289 361.926C144.44 372.736 147.664 384.954 147.664 397.39V489.109C147.664 494.067 143.654 498.076 138.696 498.076H56.1788C51.2205 498.076 47.2105 494.067 47.2105 489.109V397.39C47.2105 384.954 50.4483 372.736 56.5853 361.926L67.3283 343.03H67.3554Z" fill="#6E85E9"/>
<path d="M67.3554 324.865H127.546V343.03H67.3554V324.865Z" fill="#EACF76"/>
<path d="M63.9686 275.842H130.933V324.865H63.9686V275.842Z" fill="#EACF76"/>
<path d="M73.8311 258.056H121.071V275.72H73.8311V258.056Z" fill="#EACF76"/>
<path d="M97.4441 223.23C104.313 223.23 109.894 228.797 109.894 235.678V258.056H85.0076V235.678C85.0076 228.811 90.5756 223.23 97.4577 223.23H97.4441Z" fill="#EACF76"/>
<path d="M67.3554 324.865H127.546V330.987H67.3554V324.865Z" fill="#DAA662"/>
<path d="M122.954 320.327C123.699 320.327 124.295 319.731 124.295 318.986V281.775C124.295 281.03 123.699 280.434 122.954 280.434C122.209 280.434 121.613 281.03 121.613 281.775V318.986C121.613 319.731 122.209 320.327 122.954 320.327Z" fill="#DAA662"/>
<path d="M115.665 320.327C116.41 320.327 117.006 319.731 117.006 318.986V281.775C117.006 281.03 116.41 280.434 115.665 280.434C114.92 280.434 114.324 281.03 114.324 281.775V318.986C114.324 319.731 114.92 320.327 115.665 320.327Z" fill="#DAA662"/>
<path d="M108.377 320.327C109.122 320.327 109.718 319.731 109.718 318.986V281.775C109.718 281.03 109.122 280.434 108.377 280.434C107.632 280.434 107.036 281.03 107.036 281.775V318.986C107.036 319.731 107.632 320.327 108.377 320.327Z" fill="#DAA662"/>
<path d="M101.088 320.327C101.833 320.327 102.43 319.731 102.43 318.986V281.775C102.43 281.03 101.833 280.434 101.088 280.434C100.343 280.434 99.7472 281.03 99.7472 281.775V318.986C99.7472 319.731 100.343 320.327 101.088 320.327Z" fill="#DAA662"/>
<path d="M93.7999 320.327C94.545 320.327 95.1411 319.731 95.1411 318.986V281.775C95.1411 281.03 94.545 280.434 93.7999 280.434C93.0548 280.434 92.4587 281.03 92.4587 281.775V318.986C92.4587 319.731 93.0548 320.327 93.7999 320.327Z" fill="#DAA662"/>
<path d="M86.5114 280.421H86.5249C87.2657 280.421 87.8661 281.021 87.8661 281.762V318.986C87.8661 319.726 87.2657 320.327 86.5249 320.327H86.5114C85.7707 320.327 85.1702 319.726 85.1702 318.986V281.762C85.1702 281.021 85.7707 280.421 86.5114 280.421Z" fill="#DAA662"/>
<path d="M79.2365 320.327C79.9816 320.327 80.5777 319.731 80.5777 318.986V281.775C80.5777 281.03 79.9816 280.434 79.2365 280.434C78.4914 280.434 77.8953 281.03 77.8953 281.775V318.986C77.8953 319.731 78.4914 320.327 79.2365 320.327Z" fill="#DAA662"/>
<path d="M71.948 320.327C72.6931 320.327 73.2892 319.731 73.2892 318.986V281.775C73.2892 281.03 72.6931 280.434 71.948 280.434C71.2029 280.434 70.6068 281.03 70.6068 281.775V318.986C70.6068 319.731 71.2029 320.327 71.948 320.327Z" fill="#DAA662"/>
<path d="M73.8311 272.049H121.071V275.707H73.8311V272.049Z" fill="#DAA662"/>
<path d="M85.0076 253.871H109.894V258.056H85.0076V253.871Z" fill="#DAA662"/>
<path d="M47.2241 397.39H147.678V475.712H47.2241V397.39Z" fill="#A5B2ED"/>
<path d="M79.2655 464.746C63.6972 454.706 59.2162 433.948 69.2571 418.382C79.2979 402.815 100.058 398.335 115.627 408.374C131.195 418.414 135.676 439.172 125.635 454.739C115.594 470.306 94.8339 474.786 79.2655 464.746Z" fill="#BECCFF"/>
<path d="M57.6826 435.576C79.6429 405.517 115.245 405.517 137.206 435.576C115.245 465.634 79.6429 465.634 57.6826 435.576Z" fill="#E9EEFF"/>
<path d="M97.4441 454.364C85.0212 454.364 74.9555 444.299 74.9555 431.877C74.9555 425.822 77.3534 420.336 81.2415 416.286C91.7948 411.951 103.093 411.951 113.647 416.286C117.535 420.323 119.933 425.822 119.933 431.877C119.933 444.299 109.867 454.364 97.4441 454.364V454.364Z" fill="#6E85E9"/>
<path d="M97.4441 448.783C88.1066 448.783 80.537 441.214 80.537 431.877C80.537 422.541 88.1066 414.972 97.4441 414.972C106.782 414.972 114.351 422.541 114.351 431.877C114.351 441.214 106.782 448.783 97.4441 448.783Z" fill="#6079E4"/>
<path d="M97.4441 440.479C92.693 440.479 88.8416 436.628 88.8416 431.877C88.8416 427.127 92.693 423.276 97.4441 423.276C102.195 423.276 106.047 427.127 106.047 431.877C106.047 436.628 102.195 440.479 97.4441 440.479Z" fill="#5067CC"/>
<g opacity="0.5">
<path opacity="0.5" d="M111.818 361.926C111.357 360.111 112.726 358.337 114.609 358.337H124.051C125.162 358.337 126.178 358.973 126.652 359.976L127.573 361.913C129.064 365.042 130.337 368.293 131.407 371.639C132.003 373.481 130.594 375.364 128.657 375.364H116.939C115.53 375.364 114.324 374.348 114.107 372.966C113.498 369.16 112.739 365.462 111.831 361.913L111.818 361.926Z" fill="white"/>
<path opacity="0.5" d="M116.018 397.39C116.018 394.829 115.95 392.269 115.828 389.736C115.747 388.097 117.061 386.729 118.7 386.729H132.125C133.616 386.729 134.862 387.867 134.997 389.357C135.255 392.012 135.377 394.694 135.377 397.39V451.492C135.377 453.077 134.09 454.364 132.505 454.364H118.903C117.318 454.364 116.031 453.077 116.031 451.492V397.39H116.018Z" fill="white"/>
</g>
<path d="M400.932 325.556L407.855 360.436H392.573L400.932 325.556Z" fill="#E4E4E0"/>
<path d="M343.098 314.231L342.963 309.192C346.309 309.72 349.737 309.68 353.069 309.097L351.972 316.764C356.158 320.571 359.68 329.145 360.94 336.555C358.556 337.422 355.928 336.23 354.966 333.873C353.787 330.974 352.067 327.98 350.306 327.289C349.669 334.171 350.902 341.364 353.53 347.798C354.085 349.153 353.53 350.697 352.216 351.361L352.175 351.388C350.875 352.051 349.303 351.604 348.517 350.385C347.027 348.055 346.187 345.306 345.93 342.529L339.346 334.902C337.639 332.925 337.138 330.161 338.059 327.709L343.098 314.245V314.231Z" fill="#F0BF9C"/>
<path d="M343.044 312.077L342.963 309.192C346.309 309.72 349.737 309.68 353.069 309.097L352.446 313.486C349.262 313.622 346.052 313.134 343.044 312.077Z" fill="#EBA588"/>
<path d="M341.798 309.165L341.825 267.769C341.689 262.865 341.974 257.948 342.692 253.085L347.799 218.014C349.994 202.938 359.531 189.934 373.241 183.31L371.453 221.821L360.046 260.4L358.177 309.612C352.311 311.657 345.076 310.492 341.784 309.179L341.798 309.165Z" fill="white"/>
<path d="M372.767 193.876C368.161 200.608 365.208 208.329 364.124 216.403L362.62 227.686C361.929 232.901 361.78 238.184 362.187 243.427L362.783 251.188L371.467 221.807L372.767 193.876Z" fill="#E4E4E0"/>
<path d="M411.255 173.706L429.774 183.31L432.89 223.284L429.571 235.57V280.217H370.87V229.718C367.755 225.979 366.264 221.144 366.739 216.294L367.795 205.552C368.54 197.926 370.383 190.435 373.241 183.323L393.102 173.719H411.242L411.255 173.706Z" fill="#9EAEF0"/>
<path d="M428.04 495.801C427.173 496.139 426.794 497.155 427.214 497.982C427.715 498.97 428.216 500.013 428.704 500.921C424.911 500.217 421.077 498.794 417.663 496.817C417.934 495.95 418.083 495.042 418.083 494.121V485.33H435.668V490.87C435.668 492.157 435.911 493.417 436.358 494.595C433.541 494.351 430.669 494.758 428.04 495.801Z" fill="#F0BF9C"/>
<path d="M417.663 496.817C421.077 498.794 424.911 500.217 428.704 500.921C428.203 500.013 427.702 498.984 427.214 497.982C426.794 497.155 427.173 496.139 428.04 495.801C430.669 494.758 433.541 494.351 436.358 494.595C437.158 496.695 438.621 498.523 440.572 499.743C450.123 505.689 460.703 513.912 455.948 515.849C450.434 518.084 437.903 517.122 429.26 512.652C420.616 508.182 415.035 503.346 415.035 503.346C415.36 501.707 416.254 499.851 416.986 498.496C417.27 497.968 417.501 497.399 417.677 496.817H417.663Z" fill="#4D5473"/>
<path d="M418.083 493.091V485.343H435.668V490.883C435.668 491.06 435.681 491.236 435.695 491.398C430.113 493.484 423.963 494.067 418.083 493.078V493.091Z" fill="#EBA588"/>
<path d="M366.942 495.719C367.782 496.126 368.066 497.169 367.592 497.968C367.01 498.916 366.441 499.905 365.872 500.772C369.705 500.379 373.648 499.268 377.211 497.562C377.021 496.668 376.94 495.76 377.007 494.839L377.712 486.075L360.182 484.666L359.735 490.193C359.626 491.479 359.288 492.712 358.746 493.85C361.577 493.836 364.395 494.473 366.928 495.719H366.942Z" fill="#F0BF9C"/>
<path d="M377.197 497.562C373.634 499.268 369.692 500.379 365.858 500.772C366.427 499.905 367.009 498.916 367.578 497.968C368.066 497.169 367.768 496.139 366.928 495.719C364.395 494.473 361.563 493.836 358.746 493.85C357.784 495.882 356.185 497.589 354.126 498.645C344.128 503.806 333.263 511.961 337.842 514.264C343.153 516.932 355.399 516.187 364.368 512.421C373.336 508.656 379.297 504.28 379.297 504.28C379.107 502.628 378.362 500.691 377.739 499.295C377.495 498.74 377.319 498.158 377.197 497.575V497.562Z" fill="#4D5473"/>
<path d="M377.089 493.809L377.712 486.088L360.182 484.679L359.735 490.206C359.721 490.382 359.694 490.545 359.667 490.721C365.059 493.254 371.141 494.324 377.075 493.809H377.089Z" fill="#EBA588"/>
<path d="M359.992 488.54C357.12 487.971 355.426 487.334 355.426 487.334L361.333 381.338L367.877 286.597C368.12 284.837 368.784 283.143 369.827 281.694L370.884 280.204H429.585C431.712 281.965 433.121 284.444 433.5 287.18L439.718 371.138C440.111 376.475 440.91 381.771 442.116 386.986C444.582 397.688 445.354 427.123 444.406 438.068L440.314 485.519C438.838 486.63 437.334 487.511 435.83 488.201C431.387 490.247 426.957 490.64 423.353 490.409C418.611 490.125 415.306 488.784 415.306 488.784L410.307 433.693C409.562 427.177 409.182 402.212 409.182 395.656C409.182 386.973 408.519 378.29 407.218 369.702L399.794 329.917L394.755 373.278C393.915 380.484 393.495 387.718 393.495 394.978C393.495 405.978 392.533 435.345 390.609 446.182L383.321 487.334C378.972 488.676 374.84 489.258 371.155 489.393C366.617 489.57 362.769 489.082 360.006 488.527L359.992 488.54Z" fill="#454F6B"/>
<path d="M396.963 337.544C397.139 335.309 397.369 332.775 395.865 331.096C394.429 329.484 391.679 329.05 390.988 326.991C390.365 325.136 391.896 323.144 391.53 321.221C391.137 319.175 388.875 318.132 386.87 317.563C384.865 316.995 382.454 316.1 381.559 314.218L389.539 314.922C394.47 315.355 398.439 319.175 399.049 324.093L399.781 329.904L397.342 350.886C396.787 350.886 396.258 346.321 396.963 337.517V337.544Z" fill="#272A5B"/>
<path d="M415.048 175.67L407.855 226.955L412.312 324.16L422.716 363.173H444.785L435.817 261.524L437.469 195.975L431.752 184.366L415.048 175.67Z" fill="white"/>
<path d="M436.399 268.121L441.75 328.82C439.759 329.579 437.591 329.904 435.464 329.687C434.231 333.033 432.172 336.392 429.625 338.885C429.503 340.551 429.151 342.325 428.907 344.059C428.718 345.387 427.918 346.538 426.726 347.148C424.342 348.353 421.768 349.288 419.14 349.776L412.298 324.147L412.136 320.571L421.253 314.719L436.386 268.107L436.399 268.121Z" fill="#E4E4E0"/>
<path d="M407.855 226.955L415.048 175.67L422.161 191.343C423.028 193.266 422.405 195.528 420.671 196.734L417.758 198.752L421.511 206.162C422.296 207.706 422.093 209.562 420.996 210.889L407.855 226.941V226.955Z" fill="#E4E4E0"/>
<path d="M429.829 213.788L430.804 237.913C430.994 242.655 431.752 247.355 433.053 251.92L435.803 261.538L437.442 195.989L429.815 213.802L429.829 213.788Z" fill="#E4E4E0"/>
<path d="M410.049 327.615C410.266 326.179 411.093 324.919 412.312 324.147L424.274 316.629L425.399 312.375C428.189 314.191 431.387 315.383 434.679 315.857L432.89 319.175C432.89 319.175 432.89 328.766 424.83 335.078L425.453 341.96C425.588 343.409 424.532 344.709 423.082 344.872C420.82 345.116 418.178 345.157 416.376 345.157C415.17 345.157 414.195 344.181 414.181 342.976L414.073 334.496L411.811 342.908C411.499 344.086 410.212 344.709 409.088 344.235C408.248 343.883 407.746 342.989 407.882 342.095L410.049 327.628V327.615Z" fill="#F0BF9C"/>
<path d="M424.274 316.642L425.399 312.389C428.189 314.204 431.387 315.396 434.679 315.87L432.89 319.189C432.89 319.189 432.89 320.638 432.416 322.765C428.867 321.763 425.548 319.988 422.716 317.631L424.274 316.656V316.642Z" fill="#EBA588"/>
<path d="M439.258 259.871L429.842 213.802L429.788 183.323L429.951 183.405C445.11 191.112 455.189 206.148 456.571 223.094L459.782 262.499C460.093 266.333 459.552 270.193 458.197 273.81L440.572 320.842C430.845 320.842 426.211 317.293 423.665 314.245L439.258 259.871Z" fill="white"/>
<path d="M390.961 174.749L380.394 225.085L377.725 317.347C377.509 324.946 376.628 332.518 375.084 339.982L370.302 363.173H359.667L363.799 277.129L366.075 215.102L367.077 203.358C367.497 198.481 368.703 193.7 370.667 189.216L373.241 183.31L390.948 174.749H390.961Z" fill="white"/>
<path d="M390.961 174.749L380.394 225.085L377.197 205.254C376.899 203.412 377.563 201.543 378.958 200.31L383.835 195.989L382.047 193.293C380.801 191.41 380.841 188.958 382.155 187.13L390.961 174.762V174.749Z" fill="#E4E4E0"/>
<path d="M415.048 175.67L412.434 169.588L398.941 177.485L403.303 187.983L415.048 175.67Z" fill="#BECCFF"/>
<path d="M398.941 177.485L393.115 170.482L390.961 174.749L392.871 186.127L398.941 177.485Z" fill="#BECCFF"/>
<path d="M398.941 177.485L402.409 185.829L398.521 191.397L394.944 190.909L394.064 184.434L398.941 177.485Z" fill="#6E85E9"/>
<path d="M398.521 191.397L402.409 257.772L393.115 268.121L387.127 256.675L394.944 190.909L398.521 191.397Z" fill="#6E85E9"/>
<path d="M411.093 155.649L411.255 155.568V170.279L398.941 177.485L393.115 170.482V164.63L411.093 155.649Z" fill="#F0BF9C"/>
<path d="M402.409 168.342C399.672 170.089 396.34 170.807 393.115 170.482V164.63L411.093 155.649C410.469 157.424 409.765 159.157 408.898 160.824C407.354 163.79 405.227 166.54 402.409 168.342Z" fill="#272A5B"/>
<path d="M382.481 131.659C381.749 137.335 382.386 143.092 383.009 148.781C383.348 151.87 383.7 154.985 384.743 157.898C385.786 160.824 387.588 163.573 390.243 165.172C393.237 166.96 397.044 167.082 400.377 166.039C403.709 164.996 406.622 162.896 409.169 160.485C414.723 155.243 418.787 148.226 419.695 140.654C420.603 133.068 418.11 124.968 412.474 119.807C406.947 114.74 399.361 113.643 392.289 115.54C385.854 117.273 383.226 125.794 382.481 131.659Z" fill="#F0BF9C"/>
<path d="M387.344 150.84H391.706C391.476 151.788 390.623 152.52 389.661 152.588C388.699 152.655 387.71 151.748 387.344 150.84Z" fill="#EBA588"/>
<path d="M388.333 155.568H400.079C399.252 157.112 398.236 158.602 396.759 159.523C395.256 160.458 393.264 160.512 391.652 159.767C390.04 159.022 388.902 157.261 388.333 155.581V155.568Z" fill="white"/>
<path d="M415.36 155.608L415.319 155.581C412.935 154.389 411.35 152.005 411.187 149.35L410.388 137.213C407.354 134.924 405.457 131.429 405.186 127.636L405.01 125.157C403.154 126.282 401.284 127.487 399.13 127.772C396.976 128.056 394.524 127.257 393.535 125.32C391.422 126.363 389.268 127.325 386.911 127.446C384.553 127.568 381.966 126.498 381.045 124.331C380.435 122.895 380.652 121.215 381.343 119.82C381.979 118.52 382.995 117.436 384.093 116.474C388.78 112.397 394.917 110.27 401.108 110.582C403.425 110.69 405.782 111.11 407.868 112.153C409.67 113.061 411.269 114.456 412.19 116.244C415.943 114.605 420.82 116.637 423.272 119.901C425.724 123.18 426.374 127.487 426.211 131.578C425.873 140.383 421.66 149.459 415.346 155.608H415.36Z" fill="#6A3649"/>
<path d="M419.451 145.449C421.687 145.246 423.732 147.169 424.166 149.364C424.599 151.558 423.692 153.847 422.256 155.568C421.334 156.665 420.169 157.613 418.787 158.02C417.419 158.44 415.821 158.263 414.696 157.369C413.545 156.448 413.03 154.877 413.084 153.4C413.192 150.258 415.983 145.747 419.438 145.435L419.451 145.449Z" fill="#F0BF9C"/>
<path d="M417.338 154.728C417.487 154.728 417.636 154.701 417.771 154.66C418.34 154.484 418.977 154.01 419.56 153.319C420.467 152.235 420.901 150.976 420.725 150.041C420.603 149.418 420.007 148.944 419.763 148.944C418.489 149.052 416.661 151.707 416.606 153.536C416.579 154.132 416.782 154.552 416.904 154.647C416.931 154.674 417.081 154.741 417.351 154.741L417.338 154.728Z" fill="#EBA588"/>
<path d="M397.301 135.845C395.242 135.845 393.413 136.807 392.221 138.297L402.409 138.243C401.203 136.766 399.361 135.831 397.301 135.845Z" fill="#8C404C"/>
<path d="M399.415 142.889C399.415 143.81 398.67 144.569 397.735 144.569C396.8 144.569 396.055 143.823 396.055 142.889C396.055 141.954 396.8 141.209 397.735 141.209C398.67 141.209 399.415 141.954 399.415 142.889Z" fill="#272A5B"/>
<path d="M385.122 135.953C386.491 135.953 387.71 136.915 388.509 138.405L381.722 138.351C382.535 136.874 383.754 135.94 385.122 135.953Z" fill="#8C404C"/>
<path d="M383.713 142.997C383.713 143.918 384.215 144.677 384.824 144.677C385.434 144.677 385.935 143.932 385.935 142.997C385.935 142.063 385.434 141.317 384.824 141.317C384.215 141.317 383.713 142.063 383.713 142.997Z" fill="#272A5B"/>
</svg>
