<svg width="35" height="34" viewBox="0 0 35 34" fill="none" xmlns="http://www.w3.org/2000/svg">
<g clip-path="url(#clip0_1129_323)">
<path d="M14.1382 24.3913L13.7815 23.4853C13.2859 22.2195 12.2821 21.2157 11.0163 20.7201L10.1103 20.3634L9.73468 20.2182L7.61343 19.3849L7.15887 19.2049L4.99343 18.3558L3.21309 17.6582C2.92268 17.5319 2.77748 17.3173 2.77748 17.0174C2.77748 17.0079 2.77748 17.0048 2.78064 16.9984C2.77748 16.9921 2.77748 16.9858 2.77748 16.9795C2.77748 16.6765 2.92268 16.4618 3.21309 16.3387L4.99343 15.6379L7.15887 14.7888L7.61343 14.612L6.73904 12.6076L6.70432 12.5255L4.61463 13.3462L2.13668 14.3185C1.53377 14.5584 1.10762 14.8961 0.864564 15.3286C0.618348 15.7611 0.495239 16.3198 0.495239 16.9984C0.495239 17.6771 0.618348 18.2327 0.864564 18.6683C1.10762 19.1008 1.53377 19.4385 2.13668 19.6753L4.61463 20.6475L6.70432 21.4682L6.78639 21.4998L8.82241 22.2984L9.52319 20.6917L8.82241 22.2984L9.25803 22.4689C10.5238 22.9676 11.5245 23.9683 12.0232 25.2341L12.1937 25.6697L14.2802 24.7606L14.135 24.3849L14.1382 24.3913Z" fill="#BECCFF"/>
<path d="M30.2527 25.9664L29.1921 23.5263L28.2956 21.4714L28.2798 21.4777L28.2956 21.4714L28.2609 21.3893L27.3865 19.3848L26.4648 19.7478L27.3897 19.3848L27.2003 18.9555C26.6573 17.7087 26.6573 16.2913 27.2003 15.0445L27.3897 14.6152L25.2684 13.785L25.1074 14.1511L24.7192 15.0413C24.1731 16.2913 24.1731 17.7118 24.7192 18.9587L25.1074 19.8488L25.2684 20.2182L26.1807 22.3047L27.134 21.9291L26.1807 22.3047L26.3732 22.7498L27.3076 24.8837L28.0715 26.6356C28.1851 26.926 28.1378 27.1817 27.9231 27.3963L27.9105 27.409C27.9105 27.409 27.9042 27.4184 27.8979 27.4216C27.6832 27.6362 27.4307 27.6836 27.1371 27.57L25.3852 26.8029L23.2513 25.8717L22.8062 25.676L22.0076 27.712L21.9729 27.7941L24.031 28.6906L26.4711 29.7543C27.0645 30.0132 27.6043 30.0763 28.0841 29.9406C28.5639 29.808 29.0437 29.5018 29.5235 29.022C30.0034 28.5422 30.3127 28.0624 30.4453 27.5826C30.5779 27.1028 30.5147 26.563 30.2559 25.9664H30.2527Z" fill="#F4F9FF"/>
<path d="M21.149 4.11939L20.1768 1.64144C19.94 1.03853 19.6023 0.612385 19.1698 0.369325C18.7342 0.123108 18.1786 0 17.5 0C16.8213 0 16.2657 0.123108 15.8301 0.369325C15.3977 0.612385 15.0599 1.03853 14.8231 1.64144L13.8478 4.11939L13.0302 6.20592L13.1123 6.24065L14.4412 6.82147L13.1123 6.24065L13.0302 6.20592L12.9986 6.288L12.2 8.32402L12.0295 8.75963C11.5308 10.0254 10.5301 11.0261 9.26433 11.5248L8.82556 11.6985L9.73783 13.785L10.1135 13.6366L11.0163 13.2831C12.2852 12.7875 13.289 11.7837 13.7846 10.5147L14.1413 9.60876L14.2865 9.23628L13.7089 8.98375L14.2865 9.23628L15.1167 7.11503L15.2966 6.66363L16.1458 4.49503L16.8434 2.7147C16.9697 2.42744 17.1811 2.28224 17.4842 2.28224H17.5221C17.8251 2.28224 18.0366 2.42744 18.1629 2.7147L18.8605 4.49503L19.7128 6.66363L19.8895 7.11503L21.894 6.2438L21.9729 6.20592L21.1522 4.11939H21.149Z" fill="#BECCFF"/>
<path d="M30.4421 6.42058C30.3096 5.94077 30.0002 5.46097 29.5204 4.98116C29.0406 4.4982 28.5608 4.192 28.081 4.05942C27.6012 3.92685 27.0614 3.98998 26.468 4.24567L24.0279 5.30945L21.9698 6.20593L21.8909 6.24381L19.8864 7.11504L19.4539 7.30443C18.2102 7.84737 16.7929 7.84737 15.546 7.30443L15.1136 7.11504L14.2834 9.23629L14.6527 9.39728L15.5429 9.78554C16.7897 10.3316 18.2102 10.3316 19.4571 9.78554L20.3504 9.39728L20.7166 9.23629L20.5714 8.86381L20.7166 9.23629L22.8031 8.32402L22.0045 6.288L21.9856 6.24381L22.0045 6.29116L22.8031 8.32402L23.2482 8.13147L25.3821 7.19711L27.134 6.43321C27.4276 6.31957 27.6801 6.36692 27.8948 6.58157C27.8979 6.58472 27.9042 6.58788 27.9074 6.59419C27.9105 6.59735 27.9168 6.60051 27.92 6.60682C28.1347 6.82147 28.182 7.074 28.0684 7.36757L27.3045 9.11949L26.3701 11.2534L26.1775 11.6985L28.2104 12.4971L28.2956 12.5286L29.189 10.4737L30.2559 8.03362C30.5116 7.43701 30.5747 6.90039 30.4421 6.42058Z" fill="#F4F9FF"/>
<path d="M34.1323 15.3317C33.8892 14.8993 33.4631 14.5615 32.8601 14.3216L30.3822 13.3494L28.2957 12.5287L28.2704 12.5792L28.2925 12.5287L28.2104 12.4971L26.1776 11.6985L25.7388 11.5249C24.473 11.0261 23.4723 10.0255 22.9736 8.75965L22.8031 8.32404L20.7166 9.2363L20.8618 9.60878L21.2185 10.5147C21.7141 11.7837 22.7179 12.7875 23.9869 13.2831L24.8897 13.6366L25.2653 13.785L27.3866 14.6152L27.9106 13.4157L27.3897 14.6152L27.8411 14.792L30.0066 15.6411L31.7901 16.3419C32.0773 16.465 32.2225 16.6796 32.2225 16.9827C32.2225 16.989 32.2225 16.9953 32.2194 17.0016C32.2225 17.0079 32.2225 17.0111 32.2225 17.0205C32.2225 17.3204 32.0773 17.5351 31.7901 17.6613L30.0066 18.3589L27.8411 19.2081L27.3897 19.3848L28.2641 21.3893L28.2988 21.4714L30.3854 20.6507L32.8633 19.6784C33.4662 19.4417 33.8924 19.1039 34.1354 18.6714C34.3816 18.2358 34.5047 17.6803 34.5047 17.0016C34.5047 16.3229 34.3816 15.7642 34.1354 15.3317H34.1323Z" fill="#BECCFF"/>
<path d="M20.3473 24.6059L19.4571 24.2145C18.2071 23.6715 16.7898 23.6715 15.5429 24.2145L14.6527 24.6059L14.2834 24.7669L12.1969 25.676L11.7518 25.8717L9.61791 26.8029L7.86598 27.5668C7.57241 27.6836 7.31988 27.6363 7.10523 27.4216L7.09261 27.409L7.07998 27.3964C6.86533 27.1817 6.81798 26.926 6.93162 26.6356L7.69868 24.8837L8.62988 22.7467L8.82559 22.3047L6.78957 21.5029L6.7075 21.4714L5.80786 23.5263L4.74723 25.9664C4.48839 26.563 4.42526 27.0996 4.55784 27.5826C4.69357 28.0624 4.99976 28.5422 5.47957 29.022C5.95938 29.5018 6.43919 29.808 6.91899 29.9406C7.3988 30.0763 7.93858 30.0132 8.53203 29.7544L10.9721 28.6906L13.0302 27.7941L13.1123 27.7594L15.1167 26.885L14.6148 25.6066L15.1167 26.885L15.546 26.6987C16.7929 26.1558 18.2071 26.1558 19.4539 26.6987L19.8864 26.885L20.7166 24.7669L20.3473 24.6059Z" fill="#F4F9FF"/>
<path d="M10.9721 5.30945L8.53203 4.24567C7.93858 3.98998 7.3988 3.92685 6.91899 4.05942C6.43919 4.192 5.95938 4.4982 5.47957 4.98116C4.99977 5.46097 4.69357 5.94077 4.55784 6.42058C4.42526 6.90039 4.48839 7.43701 4.74408 8.03362L5.81102 10.4737L6.7075 12.5286L6.74222 12.6107L7.61661 14.6152L8.64251 14.2143L7.61976 14.6152L7.806 15.0476C8.34894 16.2945 8.34894 17.7087 7.806 18.9555L7.61976 19.3848L9.73786 20.2182L9.89885 19.8489L10.2871 18.9587C10.8332 17.7118 10.8332 16.2945 10.2903 15.0445L9.89885 14.1543L9.73786 13.785L8.82559 11.6953L8.63304 11.2502L7.70184 9.11634L6.93478 7.36441C6.82114 7.07084 6.86849 6.81831 7.08314 6.60366C7.08629 6.59735 7.09261 6.59419 7.09576 6.59104C7.09892 6.58472 7.10523 6.58157 7.10839 6.57841C7.32304 6.36376 7.57557 6.31641 7.86914 6.43005L9.62106 7.19395L11.7549 8.12831L12.2 8.32087L13.0018 6.288L13.0334 6.20277L10.9753 5.30629L10.9721 5.30945Z" fill="#F4F9FF"/>
<path d="M25.2653 20.2182L24.8896 20.3634L23.9837 20.7201C22.7179 21.2157 21.7141 22.2195 21.2185 23.4853L20.8618 24.3913L20.7166 24.7669L19.8864 26.885L19.7096 27.3364L18.8573 29.505L18.1597 31.2853C18.0335 31.5726 17.822 31.7209 17.5189 31.7209C17.5126 31.7209 17.5063 31.7209 17.5 31.7209C17.4937 31.7209 17.4874 31.7209 17.4811 31.7209C17.178 31.7209 16.9665 31.5726 16.8403 31.2853L16.1426 29.505L15.2935 27.3364L15.1167 26.885L13.1091 27.7594L13.0302 27.7941L13.8478 29.8838L14.8232 32.3586C15.0599 32.9646 15.3977 33.3876 15.8301 33.6339C16.2658 33.8801 16.8213 34 17.5 34C18.1787 34 18.7342 33.8801 19.1698 33.6339C19.6023 33.3876 19.9401 32.9646 20.1768 32.3586L21.149 29.8838L21.9698 27.7941L21.9319 27.7783L21.9698 27.7941L22.0013 27.712L22.8 25.676L21.6762 25.1867L22.8 25.676L22.9704 25.2404C23.4692 23.9746 24.4698 22.9739 25.7356 22.4752L26.1744 22.3047L25.2621 20.2182H25.2653Z" fill="#BECCFF"/>
</g>
<defs>
<clipPath id="clip0_1129_323">
<rect width="34.0032" height="34" fill="white" transform="translate(0.498413)"/>
</clipPath>
</defs>
</svg>
