<svg width="21" height="20" viewBox="0 0 21 20" fill="none" xmlns="http://www.w3.org/2000/svg">
<path d="M18 10C18 9.77 17.99 9.55 17.97 9.32L19.83 7.91C20.23 7.61 20.34 7.05 20.09 6.61L18.22 3.38C18.1001 3.16818 17.9061 3.00814 17.6754 2.93062C17.4447 2.8531 17.1934 2.86356 16.97 2.96L14.82 3.87C14.45 3.61 14.06 3.38 13.65 3.19L13.36 0.88C13.3 0.38 12.87 0 12.37 0H8.63997C8.12997 0 7.69997 0.38 7.63997 0.88L7.34997 3.19C6.93997 3.38 6.54997 3.61 6.17997 3.87L4.02997 2.96C3.56997 2.76 3.02997 2.94 2.77997 3.38L0.90997 6.62C0.65997 7.06 0.76997 7.61 1.16997 7.92L3.02997 9.33C2.98852 9.77905 2.98852 10.231 3.02997 10.68L1.16997 12.09C0.76997 12.39 0.65997 12.95 0.90997 13.39L2.77997 16.62C3.02997 17.06 3.56997 17.24 4.02997 17.04L6.17997 16.13C6.54997 16.39 6.93997 16.62 7.34997 16.81L7.63997 19.12C7.69997 19.62 8.12997 20 8.62997 20H12.36C12.86 20 13.29 19.62 13.35 19.12L13.64 16.81C14.05 16.62 14.44 16.39 14.81 16.13L16.96 17.04C17.42 17.24 17.96 17.06 18.21 16.62L20.08 13.39C20.33 12.95 20.22 12.4 19.82 12.09L17.96 10.68C17.99 10.45 18 10.23 18 10ZM10.54 13.5C8.60997 13.5 7.03997 11.93 7.03997 10C7.03997 8.07 8.60997 6.5 10.54 6.5C12.47 6.5 14.04 8.07 14.04 10C14.04 11.93 12.47 13.5 10.54 13.5Z" fill="#A5B2ED"/>
</svg>
